<svg xmlns="http://www.w3.org/2000/svg" width="18" height="17" fill="none" viewBox="0 0 18 17">
  <path fill="#1D2E5B" d="M13.1 14.17c-.6 0-1.18-.17-1.68-.49-.5-.31-.88-.77-1.11-1.3a2.78 2.78 0 01.65-3.15 3.16 3.16 0 013.3-.63 3 3 0 011.36 1.06 2.8 2.8 0 01-.37 3.66 3.1 3.1 0 01-2.15.85zm0-4.79c-.39 0-.77.12-1.1.32-.32.21-.57.5-.72.85a1.81 1.81 0 00.43 2.06 2.06 2.06 0 002.15.41c.36-.14.67-.39.89-.7a1.83 1.83 0 00-.25-2.38 2.02 2.02 0 00-1.4-.56zM4.41 14.17c-.6 0-1.18-.17-1.68-.49-.5-.31-.89-.77-1.12-1.3a2.78 2.78 0 01.66-3.15 3.16 3.16 0 013.3-.63 3 3 0 011.36 1.06 2.8 2.8 0 01-.38 3.66 3.1 3.1 0 01-2.14.85zm0-4.79c-.39 0-.77.12-1.1.32-.32.21-.57.5-.72.85a1.81 1.81 0 00.43 2.06 2.06 2.06 0 002.15.41c.36-.14.67-.39.88-.7a1.83 1.83 0 00-.24-2.38 2.02 2.02 0 00-1.4-.56zM10.87 4.1a1.1 1.1 0 00.74-.3 1 1 0 00.3-.72.96.96 0 00-.3-.71 1.04 1.04 0 00-.74-.3 1.1 1.1 0 00-.74.3 1 1 0 00-.31.71.97.97 0 00.3.72 1.06 1.06 0 00.75.3z" opacity=".15"/>
  <path fill="#1D2E5B" d="M12.43 6.1h-1.51a.13.13 0 01-.04-.06L9.82 4.21a.99.99 0 00-.31-.34 1.05 1.05 0 00-1.32.1L5.9 6.18a1 1 0 00-.3.71c0 .55.41.74.6.85A105.98 105.98 0 018.22 8.9c.02.01.02.04.02.06v2.17c0 .27.22.5.5.52a.55.55 0 00.4-.14.5.5 0 00.16-.36V8.44a.49.49 0 00-.06-.23.51.51 0 00-.16-.18L7.85 7.2a.13.13 0 01-.06-.09.12.12 0 01.04-.1L9.2 5.6a.13.13 0 01.11-.05l.06.02.04.05.72 1.24a.55.55 0 00.46.26h1.85a.55.55 0 00.38-.16.5.5 0 00.14-.37c-.01-.27-.26-.48-.54-.48z" opacity=".15"/>
</svg>
