<svg xmlns="http://www.w3.org/2000/svg" width="18" height="17" fill="none" viewBox="0 0 18 17">
  <path fill="#1D2E5B" d="M4.54 11c0-.31-.13-.58-.4-.81-.28-.22-.61-.34-1-.34s-.72.12-1 .34c-.27.23-.4.5-.4.81 0 .32.13.6.4.82.28.22.61.34 1 .34s.72-.12 1-.34c.27-.23.4-.5.4-.82zm11.24 0c0-.31-.14-.58-.41-.81-.28-.22-.6-.34-1-.34-.38 0-.71.12-.99.34-.27.23-.41.5-.41.81 0 .32.14.6.41.82.28.22.6.34 1 .34.38 0 .71-.12.99-.34.27-.23.4-.5.4-.82zm-.5-3.56L14.47 4a.58.58 0 00-.24-.34.77.77 0 00-.45-.13H3.72a.77.77 0 00-.44.13.58.58 0 00-.25.34l-.79 3.45a.5.5 0 00.15.48c.14.14.32.2.54.2h11.65c.22 0 .4-.06.54-.2a.5.5 0 00.15-.48zm-2.49-5.5a.38.38 0 00-.15-.31.57.57 0 00-.37-.13H5.25a.57.57 0 00-.38.13.38.38 0 00-.15.3c0 .12.05.23.15.31.1.08.23.13.38.13h7.02c.14 0 .27-.05.37-.13.1-.08.15-.19.15-.3zm4.4 6.52v5.42h-1.41v1.16c0 .31-.14.59-.41.81-.28.22-.6.34-1 .34-.38 0-.71-.12-.99-.34-.27-.22-.41-.5-.41-.81v-1.16H4.54v1.16c0 .31-.13.59-.4.81-.28.22-.61.34-1 .34s-.72-.12-1-.34c-.27-.22-.4-.5-.4-.81v-1.16H.34V8.46c0-.67.08-1.34.27-2l1.13-4.1c.06-.46.42-.87 1.07-1.23a8.24 8.24 0 012.52-.8C6.36.15 7.5.06 8.76.06s2.4.1 3.43.27c1.03.18 1.87.45 2.52.8.65.36 1 .77 1.07 1.24l1.15 4.08c.17.61.25 1.28.25 2z"/>
</svg>
