<svg width="14" height="16" viewBox="0 0 14 16" fill="none" xmlns="http://www.w3.org/2000/svg">
<path d="M12.9146 0.927695C12.3249 1.05994 11.7325 1.19281 11.5121 1.55688L9.80651 4.7625L0.648283 6.81634L0.277232 7.84059L7.28531 8.46568L6.09628 11.2408L3.43851 11.8368L2.77123 12.9275L4.68861 13.1239L4.90725 14.0159C5.00521 14.3321 5.34902 14.5432 5.64248 14.4774L6.5284 14.2787L7.55537 15.9305L8.22266 14.8398L7.56673 12.1638L9.49099 9.85016L13.1627 15.9287L13.9031 15.1363L11.6435 5.91794L13.7185 2.94416C13.9416 2.57946 13.7961 1.98572 13.6499 1.38919C13.5774 1.09371 13.2081 0.861883 12.9146 0.927695Z" fill="#1D2E5B"/>
</svg>
