<svg xmlns="http://www.w3.org/2000/svg" xmlns:xlink="http://www.w3.org/1999/xlink"><symbol id="arrow-bend" viewBox="0 0 32 16"><path fill-rule="evenodd" clip-rule="evenodd" d="M4 16h24a4 4 0 004-4V7a4 4 0 00-4-4H4v2h24a2 2 0 012 2v5a2 2 0 01-2 2H4v2z"/><path d="M0 4L9 .536v6.928L0 4z"/></symbol><symbol id="bike" viewBox="0 0 18 17"><path d="M13.105 14.172c-.6 0-1.185-.17-1.683-.488a2.93 2.93 0 01-1.116-1.3 2.781 2.781 0 01-.172-1.675 2.86 2.86 0 01.829-1.483 3.074 3.074 0 011.55-.793 3.157 3.157 0 011.75.165c.554.219 1.027.59 1.36 1.067a2.81 2.81 0 01.51 1.61c0 .768-.32 1.504-.887 2.047a3.104 3.104 0 01-2.141.85zm0-4.787c-.391 0-.773.11-1.098.318a1.911 1.911 0 00-.727.848c-.15.346-.19.726-.113 1.092.076.367.264.703.54.968.277.264.63.444 1.012.517.383.073.78.035 1.142-.108.36-.143.67-.385.886-.696a1.83 1.83 0 00.333-1.05c0-.5-.209-.98-.579-1.335a2.024 2.024 0 00-1.396-.554zm-8.693 4.787c-.599 0-1.184-.17-1.683-.488a2.93 2.93 0 01-1.115-1.3 2.78 2.78 0 01-.173-1.675 2.86 2.86 0 01.83-1.483 3.074 3.074 0 011.55-.793 3.157 3.157 0 011.75.165c.554.219 1.027.59 1.36 1.067.333.476.51 1.036.51 1.61 0 .768-.32 1.504-.888 2.047a3.104 3.104 0 01-2.14.85zm0-4.787c-.39 0-.772.11-1.097.318a1.91 1.91 0 00-.728.848c-.15.346-.188.726-.112 1.092.076.367.264.703.54.968.277.264.629.444 1.012.517.383.073.78.035 1.141-.108.361-.143.67-.385.887-.696a1.83 1.83 0 00.333-1.05c0-.5-.21-.98-.58-1.335a2.024 2.024 0 00-1.396-.554zm6.454-5.291a1.092 1.092 0 00.747-.296.966.966 0 00.306-.716.957.957 0 00-.303-.712 1.08 1.08 0 00-.744-.292 1.095 1.095 0 00-.746.293 1.006 1.006 0 00-.23.326.97.97 0 00.226 1.1 1.067 1.067 0 00.744.297z"/><path d="M12.431 6.11h-1.44a.136.136 0 01-.068-.018.128.128 0 01-.048-.048L9.83 4.212a.99.99 0 00-.31-.344 1.065 1.065 0 00-.911-.137 1.03 1.03 0 00-.405.237l-2.3 2.217a1.003 1.003 0 00-.306.705c0 .548.415.744.609.854.938.517 1.599.895 1.961 1.105a.13.13 0 01.047.046c.01.019.017.04.017.062v2.177c0 .27.218.503.501.517a.548.548 0 00.389-.138.505.505 0 00.163-.365V8.44c0-.08-.02-.159-.058-.23a.511.511 0 00-.16-.18l-1.22-.838a.128.128 0 01-.054-.09.121.121 0 01.036-.099l1.383-1.41a.132.132 0 01.112-.04c.02.003.04.01.057.021a.128.128 0 01.042.044l.718 1.24a.516.516 0 00.194.19c.081.045.173.07.267.07h1.844a.547.547 0 00.382-.157.502.502 0 00.145-.372c-.014-.271-.258-.48-.542-.48z"/></symbol><symbol id="bus" viewBox="0 0 18 17"><path d="M4.545 11.005c0-.319-.137-.59-.411-.815a1.515 1.515 0 00-.993-.337c-.388 0-.719.112-.993.337-.274.225-.412.497-.412.815 0 .317.138.589.412.814.274.225.605.337.993.337.387 0 .718-.112.993-.337.274-.225.411-.497.411-.815zm11.234 0c0-.319-.137-.59-.412-.815a1.515 1.515 0 00-.992-.337c-.388 0-.719.112-.993.337-.274.225-.412.497-.412.815 0 .317.138.589.412.814.274.225.605.337.993.337.387 0 .718-.112.992-.337.275-.225.412-.497.412-.815zm-.505-3.564l-.79-3.455a.58.58 0 00-.246-.338.772.772 0 00-.445-.13H3.723a.771.771 0 00-.445.13.58.58 0 00-.247.338l-.79 3.455a.499.499 0 00.154.477.73.73 0 00.537.207h11.651a.73.73 0 00.538-.207.498.498 0 00.153-.477zm-2.48-5.507a.383.383 0 00-.153-.306.569.569 0 00-.373-.126h-7.02a.569.569 0 00-.374.126.383.383 0 00-.153.306c0 .12.05.222.153.306a.569.569 0 00.373.126h7.021c.147 0 .27-.042.373-.126a.383.383 0 00.154-.306zm4.39 6.524v5.426h-1.405v1.152c0 .318-.137.59-.412.814a1.515 1.515 0 01-.992.338c-.388 0-.719-.113-.993-.338-.274-.225-.412-.496-.412-.814v-1.152H4.545v1.152c0 .318-.137.59-.411.814a1.515 1.515 0 01-.993.338c-.388 0-.719-.113-.993-.338-.274-.225-.412-.496-.412-.814v-1.152H.332V8.458c0-.672.092-1.34.275-2.007l1.13-4.085c.065-.468.422-.879 1.07-1.233.646-.354 1.487-.62 2.522-.8 1.035-.18 2.178-.27 3.429-.27 1.25 0 2.393.09 3.428.27 1.035.18 1.876.446 2.523.8.648.354 1.004.765 1.07 1.233l1.152 4.085c.168.612.252 1.281.252 2.007z"/></symbol><symbol id="facebook" viewBox="0 0 11 21"><path d="M7.488 20.813H2.129v-9.675H0V6.352h2.066c-.157-2.168.236-3.75 1.195-4.83A4.879 4.879 0 014.896.397 5.078 5.078 0 016.867 0h3.756v4.612H7.669a4.7 4.7 0 00-.197 1.74h3.143v4.785H7.472l.016 9.675zm-4.172-1.125h2.97v-9.675h3.143V7.5H6.286v-.57c0-1.5 0-2.842.785-3.345l.15-.098h2.208V1.125h-2.53a3.821 3.821 0 00-1.497.284c-.472.194-.897.48-1.246.841-.785.922-1.107 2.468-.864 4.605l.079.622H1.179v2.535h2.137v9.675z"/></symbol><symbol id="htmlacademy" viewBox="0 0 27 34"><path d="M13.643.101L13.5.086 0 1.464v24.102l13.5 7.823L27 25.566V1.464L13.643.101zM25.234 24.59L13.5 31.39l-11.734-6.8v-9.88l11.685 6.774.02 1.228-8.017-4.646-.011 1.2 8.046 4.71.02 1.26-8.045-4.66-.01 1.2 8.046 4.71 8.124-4.734v-5.103l3.62-2.105-.01 10.046zm0-11.327l-3.22 1.842-1.482.857-7.065-4.101-.011 1.2 6.04 3.5-.053.03-.13.074-.86.482-4.986-2.888-.011 1.2 3.936 2.28-.933.598-.021.012-2.971-1.706-.011 1.2 1.947 1.11-1.988 1.163-11.618-6.731L13.435 6.57l11.8 6.693zm0-1.2L13.44 5.288 1.766 12.055v-9.04l11.734-1.2 11.734 1.2v9.047z"/></symbol><symbol id="instagram" viewBox="0 0 18 18"><g><path d="M12.96 1.8a3.247 3.247 0 013.24 3.24v7.92a3.247 3.247 0 01-3.24 3.24H5.04a3.247 3.247 0 01-3.233-3.24V5.04A3.247 3.247 0 015.04 1.8h7.92zm0-1.08H5.04A4.32 4.32 0 00.72 5.04v7.92a4.32 4.32 0 004.32 4.32h7.92a4.32 4.32 0 004.32-4.32V5.04A4.32 4.32 0 0012.96.72z"/><path d="M9.007 5.817a3.19 3.19 0 11-2.949 1.968 3.182 3.182 0 012.949-1.968zm0-1.08a4.27 4.27 0 103.94 2.637 4.262 4.262 0 00-3.94-2.637zm4.421.823a.965.965 0 100-1.93.965.965 0 000 1.93z"/></g></symbol><symbol id="like-evenodd" viewBox="0 0 21 19"><path fill-rule="evenodd" clip-rule="evenodd" d="M10.256 7.124l1.12-2.348c.277-.582.76-1.418 1.441-2.095.671-.665 1.475-1.118 2.446-1.118 2.098 0 3.756 1.74 3.756 3.834 0 1.59-.694 2.712-2.338 4.424-.422.439-.903.912-1.435 1.435-1.387 1.365-3.112 3.064-4.99 5.336-1.878-2.272-3.603-3.97-4.99-5.336a74.225 74.225 0 01-1.434-1.435C2.187 8.11 1.493 6.987 1.493 5.397c0-2.093 1.658-3.834 3.756-3.834.971 0 1.775.453 2.446 1.118.682.677 1.164 1.513 1.442 2.095l1.12 2.348zm.49 10.887a.646.646 0 01-.22.176.617.617 0 01-.76-.176c-2.005-2.497-3.819-4.283-5.312-5.752C1.869 9.713.242 8.113.242 5.397.242 2.554 2.482.25 5.249.25c2.003 0 3.404 1.379 4.261 2.636.326.48.573.94.746 1.303.217-.454.466-.89.746-1.303C11.86 1.627 13.26.25 15.263.25c2.767 0 5.008 2.304 5.008 5.147 0 2.716-1.628 4.316-4.213 6.862-1.493 1.47-3.307 3.256-5.311 5.75v.002z"/></symbol><symbol id="like" viewBox="0 0 13 11"><path d="M3.255.474c1.693 0 3.064 1.348 3.064 3.01 0-1.662 1.371-3.01 3.064-3.01s3.064 1.348 3.064 3.01c0 2.505-2.477 3.389-5.828 7.377a.394.394 0 01-.6 0C2.669 6.873.192 5.989.192 3.484c0-1.662 1.37-3.01 3.063-3.01z"/></symbol><symbol id="location" viewBox="0 0 21 21"><path d="M10.5 0a7.876 7.876 0 00-7.875 7.875c0 5.058 3.803 7.27 4.644 8.279C9.29 18.577 9.403 21 10.5 21s1.211-2.423 3.23-4.846c.841-1.01 4.645-3.22 4.645-8.279A7.876 7.876 0 0010.5 0zm0 13.125a5.25 5.25 0 110-10.5 5.25 5.25 0 010 10.5zm0-7.875a2.626 2.626 0 000 5.25 2.626 2.626 0 000-5.25z"/><circle cx="10.5" cy="7.875" r=".875"/></symbol><symbol id="mail-1" viewBox="0 0 24 25"><path fill-rule="evenodd" clip-rule="evenodd" d="M19.14 16.466L14.808 12.5l4.33-3.966-.59-.631-6.299 5.769-6.299-5.77-.59.632L9.69 12.5l-4.33 3.966.59.631 4.38-4.011 1.919 1.758 1.92-1.758 4.379 4.011.59-.63zM4.575 6.25c-.81 0-1.465.699-1.465 1.558v9.384c0 .86.65 1.558 1.465 1.558h15.348c.809 0 1.465-.699 1.465-1.558V7.808c0-.86-.65-1.558-1.465-1.558H4.576z"/></symbol><symbol id="mail-2" viewBox="0 0 19 17"><path d="M2.017 3.325l6.75 4.23c.226.142.52.21.815.21.295 0 .589-.068.815-.21l6.75-4.23c.44-.276.856-1.35.049-1.35H1.969c-.807 0-.392 1.074.048 1.35zm15.335 2.313l-6.955 4.229c-.306.187-.52.209-.815.209-.295 0-.51-.022-.815-.21-.306-.186-6.42-3.925-6.92-4.229-.35-.214-.347.037-.347.23v7.658c0 .441.51 1.05.9 1.05h14.4c.39 0 .9-.609.9-1.05V5.868c0-.193.004-.444-.348-.23z"/></symbol><symbol id="phone-1" viewBox="0 0 17 15"><path fill-rule="evenodd" clip-rule="evenodd" d="M8.5.086c-2.796 0-5.6.473-6.617 1.415C1.04 2.283.758 3.663.663 4.538c0 0-.013.086-.013.123 0 .343.294.618.654.618.043 0 1.616-.12 2.565-.195.022-.003.045-.006.068-.012.353-.01.638-.281.638-.618l.003-1.217c0-.377.324-.68.723-.68H11.7c.399 0 .723.303.723.68l.003 1.217c0 .337.284.609.638.618.022.006.045.01.069.012.948.074 2.521.195 2.564.195.36 0 .654-.275.654-.618 0-.037-.013-.123-.013-.123-.095-.875-.376-2.255-1.22-3.037C14.1.559 11.297.086 8.5.086zm0 8.032c-.723 0-1.308.553-1.308 1.235 0 .683.585 1.236 1.308 1.236.723 0 1.308-.553 1.308-1.236 0-.682-.585-1.235-1.308-1.235zm-.981-2.78v-.773c0-.426-.367-.772-.818-.772-.451 0-.818.346-.818.772v.773l-4.412 4.45a1.504 1.504 0 00-.494 1.107v1.239c0 .682.586 1.235 1.308 1.235h.328v.772c0 .427.366.773.817.773.452 0 .818-.346.818-.773v-.772h8.504v.772c0 .427.366.773.818.773.451 0 .817-.346.817-.773v-.772h.327c.723 0 1.309-.553 1.309-1.236v-1.238c0-.433-.19-.825-.494-1.106l-4.412-4.451v-.773c0-.426-.367-.772-.818-.772-.451 0-.818.346-.818.772v.773H7.52zM8.5 6.882c1.446 0 2.617 1.106 2.617 2.471 0 1.366-1.171 2.472-2.617 2.472s-2.617-1.106-2.617-2.472c0-1.365 1.171-2.47 2.617-2.47z"/></symbol><symbol id="phone-2" viewBox="0 0 19 19"><path d="M9.774 8.224c0 .189.154.337.342.337a.7.7 0 01.703.696.34.34 0 00.341.337.34.34 0 00.342-.337 1.38 1.38 0 00-1.386-1.37.34.34 0 00-.342.337zm5.558 1.37a.338.338 0 00.341-.337c0-3.031-2.492-5.495-5.557-5.495a.34.34 0 00-.342.338.34.34 0 00.342.337c2.69 0 4.875 2.164 4.875 4.82a.34.34 0 00.341.337z"/><path d="M12.905 9.257a.34.34 0 00.341.337.34.34 0 00.341-.337c0-1.894-1.556-3.433-3.471-3.433a.34.34 0 00-.342.338c0 .189.154.337.342.337 1.54 0 2.789 1.239 2.789 2.758zM10.115 1.7a.34.34 0 00-.34.337.34.34 0 00.34.338c3.841 0 6.965 3.088 6.965 6.882 0 .185.15.337.341.337a.34.34 0 00.342-.337c0-4.168-3.431-7.557-7.647-7.557zm3.336 11.114l-.447.24c-.755.408-1.342 1.527-2.273.684L8.301 11.3 6.2 9.257c-1.055-1.334.126-1.65.54-2.4l.242-.439c.273-.5.372-1.06.29-1.62a2.557 2.557 0 00-.744-1.475 2.636 2.636 0 00-1.868-.762c-.706 0-1.372.27-1.87.762l-.174.176c-.922.911-1.028 2.48-.3 4.424C3 9.78 4.383 11.791 6.2 13.587c2.769 2.737 5.851 4.313 8.063 4.313.874 0 1.615-.246 2.14-.766l.178-.176a2.595 2.595 0 00.775-1.85 2.636 2.636 0 00-.775-1.845 2.683 2.683 0 00-3.13-.45z"/></symbol><symbol id="plane" viewBox="0 0 14 16"><path d="M12.915.928c-.59.132-1.182.265-1.403.629L9.807 4.763.648 6.816l-.37 1.025 7.007.625-1.189 2.775-2.657.596-.668 1.09 1.918.197.218.892c.098.316.442.527.735.461l.886-.198 1.027 1.652.668-1.091-.656-2.676L9.49 9.85l3.672 6.079.74-.793-2.26-9.218 2.075-2.974c.224-.365.078-.958-.068-1.555-.073-.295-.442-.527-.735-.461z"/></symbol><symbol id="vkontakte" viewBox="0 0 23 12"><path d="M17.766 11.833a2.981 2.981 0 01-1.543-.472 7.563 7.563 0 01-1.32-1.148c-.327-.33-.869-.885-1.076-.885-.208 0-.356.69-.349 1.178a1.32 1.32 0 01-.349.907 1.666 1.666 0 01-.905.375H10.8a8.35 8.35 0 01-5.513-2.25C2.557 7.011.212 2.181.116 1.971A1.014 1.014 0 01.227.86 1.53 1.53 0 011.237.5h3.115c.25.037.49.126.704.262.202.137.363.326.467.548.32.692.687 1.361 1.099 2.002.971 1.5 1.402 1.845 1.558 1.92a6.154 6.154 0 00.14-2.152 2.045 2.045 0 00-.155-.96.98.98 0 00-.572-.218l-.541-.517C6.949.89 7.49.463 7.869.298a6.382 6.382 0 012.337-.285h.527a6.688 6.688 0 011.595.15c1.261.27 1.217 1.298 1.165 2.483 0 .345-.037.75-.037 1.215v.36c-.03.326-.007.655.067.975a6.803 6.803 0 001.535-1.86c.43-.67.807-1.372 1.128-2.1.098-.23.266-.424.479-.552.213-.128.461-.184.708-.16h3.176c.093-.01.188-.01.282 0 .742 0 1.18.217 1.357.637.178.42.127 1.245-1.75 3.457l-.742.848c-.36.352-.67.754-.92 1.192.28.323.6.61.95.855.852.65 1.602 1.426 2.225 2.303a1.206 1.206 0 01.193 1.26 1.693 1.693 0 01-1.395.75l-2.812.037-.17-.03zm-3.94-3.63c.668 0 1.247.593 1.863 1.215.333.367.706.695 1.113.975.308.207.67.317 1.039.315h.074l2.82-.037a1.05 1.05 0 00.4-.105l-.074-.12a9.864 9.864 0 00-1.989-2.04c-.883-.75-1.335-1.103-1.387-1.68-.052-.578.363-1.08 1.194-2.033l.742-.832a8.05 8.05 0 001.521-2.213 4.155 4.155 0 00-.497 0h-3.242a.404.404 0 00-.178 0A15.422 15.422 0 0116 3.936c-1.403 2.115-2.063 2.4-2.53 2.4a.876.876 0 01-.416-.105c-.742-.428-.742-1.38-.697-2.07v-.323c0-.487 0-.907.037-1.267.06-1.26 0-1.268-.282-1.335a6.285 6.285 0 00-1.38-.12h-.512a9.543 9.543 0 00-1.41.075.88.88 0 01.186.187 2.89 2.89 0 01.438 1.635c.096 1.238.044 2.85-.742 3.24-.14.066-.292.1-.446.098-.69 0-1.372-.66-2.537-2.445a17.617 17.617 0 01-1.195-2.138l-.059-.075a.891.891 0 00-.237-.082h-3.02c.438.915 2.515 4.965 4.837 7.087a7.378 7.378 0 004.764 1.973h1.372a.736.736 0 00.2-.075v-.068c0-.202 0-1.95 1.173-2.25a1.23 1.23 0 01.282-.075z"/></symbol><symbol id="walk" viewBox="0 0 18 17"><path d="M12.27 4.094c.776 0 1.405-.602 1.405-1.344 0-.742-.629-1.344-1.404-1.344-.776 0-1.405.602-1.405 1.344 0 .742.629 1.344 1.405 1.344zm-.858 3.338a1.4 1.4 0 00.662.507c.27.1.565.117.846.05l2.33-.556-.34-1.303-2.329.556-.969-1.388a1.416 1.416 0 00-.893-.574l-2.702-.517a1.461 1.461 0 00-.892.11c-.277.13-.502.343-.64.606L5.322 7.151l1.257.602 1.164-2.229 1.382.265-3.573 5.695H2.437v1.344H5.55c.49 0 .952-.25 1.205-.652l1.347-2.148 3.631.695 1.275 3.661 1.332-.425-1.275-3.66a1.345 1.345 0 00-.403-.583 1.435 1.435 0 00-.654-.311l-2.135-.408 1.245-1.985.293.42z"/></symbol></svg>