<svg xmlns="http://www.w3.org/2000/svg" width="18" height="17" fill="none"><path fill="#1D2E5B" d="M12.27 4.1c.78 0 1.4-.6 1.4-1.35 0-.74-.62-1.34-1.4-1.34-.78 0-1.4.6-1.4 1.34 0 .74.62 1.34 1.4 1.34zm-.86 3.33c.16.23.4.4.66.5.27.1.57.13.85.06l2.33-.56-.34-1.3-2.33.56-.97-1.4c-.2-.29-.53-.5-.9-.57l-2.7-.51c-.3-.06-.6-.02-.89.1-.27.14-.5.35-.63.61L5.32 7.15l1.26.6 1.16-2.23 1.38.27-3.57 5.7H2.44v1.34h3.11c.5 0 .95-.25 1.2-.65l1.35-2.15 3.63.7 1.28 3.65 1.33-.42-1.27-3.66a1.34 1.34 0 00-.4-.58A1.44 1.44 0 0012 9.4L9.87 9l1.25-2 .3.42z"/></svg>